<svg xmlns="http://www.w3.org/2000/svg" viewBox="0 0 123.81 38.69"><defs><style>.cls-1{fill:#b3b4b4;stroke-width:3px;}.cls-1,.cls-2,.cls-3{stroke:#231f20;stroke-miterlimit:10;}.cls-2{fill:#e6e6e6;}.cls-3{fill:#faed23;stroke-width:0.5px;}</style></defs><g id="Layer_2" data-name="Layer 2"><g id="Layer_2-2" data-name="Layer 2"><path class="cls-1" d="M104.46,37.19H19.35A17.9,17.9,0,0,1,1.5,19.35h0A17.9,17.9,0,0,1,19.35,1.5h85.11a17.9,17.9,0,0,1,17.85,17.85h0A17.9,17.9,0,0,1,104.46,37.19Z"/><path class="cls-2" d="M104.63,30.38H19.17a11.07,11.07,0,0,1-11-11h0a11.06,11.06,0,0,1,11-11h85.46a11.06,11.06,0,0,1,11,11h0A11.06,11.06,0,0,1,104.63,30.38Z"/><rect class="cls-3" x="18.87" y="27.52" width="4.32" height="3.88"/><rect class="cls-3" x="26.31" y="27.52" width="4.32" height="3.88"/><rect class="cls-3" x="33.75" y="27.52" width="4.32" height="3.88"/><rect class="cls-3" x="41.19" y="27.52" width="4.32" height="3.88"/><rect class="cls-3" x="48.63" y="27.52" width="4.32" height="3.88"/><rect class="cls-3" x="56.07" y="27.52" width="4.32" height="3.88"/><rect class="cls-3" x="63.52" y="27.52" width="4.32" height="3.88"/><rect class="cls-3" x="70.96" y="27.52" width="4.32" height="3.88"/><rect class="cls-3" x="78.4" y="27.52" width="4.32" height="3.88"/><rect class="cls-3" x="85.84" y="27.52" width="4.32" height="3.88"/><rect class="cls-3" x="93.28" y="27.52" width="4.32" height="3.88"/><rect class="cls-3" x="100.73" y="27.52" width="4.32" height="3.88"/><rect class="cls-3" x="18.87" y="7.29" width="4.32" height="3.88"/><rect class="cls-3" x="26.31" y="7.29" width="4.32" height="3.88"/><rect class="cls-3" x="33.75" y="7.29" width="4.32" height="3.88"/><rect class="cls-3" x="41.19" y="7.29" width="4.32" height="3.88"/><rect class="cls-3" x="48.63" y="7.29" width="4.32" height="3.88"/><rect class="cls-3" x="56.07" y="7.29" width="4.32" height="3.88"/><rect class="cls-3" x="63.52" y="7.29" width="4.32" height="3.88"/><rect class="cls-3" x="70.96" y="7.29" width="4.32" height="3.88"/><rect class="cls-3" x="78.4" y="7.29" width="4.32" height="3.88"/><rect class="cls-3" x="85.84" y="7.29" width="4.32" height="3.88"/><rect class="cls-3" x="93.28" y="7.29" width="4.32" height="3.88"/><rect class="cls-3" x="100.73" y="7.29" width="4.32" height="3.88"/></g></g></svg>