<svg xmlns="http://www.w3.org/2000/svg" viewBox="0 0 47.74 40.2"><defs><style>.cls-1,.cls-4{fill:#fff;}.cls-1,.cls-2{stroke:#231f20;}.cls-2{fill:#a7a9ac;}.cls-3{fill:#231f20;}</style></defs><g id="Layer_2" data-name="Layer 2"><g id="Layer_2-2" data-name="Layer 2"><polygon class="cls-1" points="45.95 0.5 0.5 0.5 0.5 39.7 47.24 39.7 47.24 0.5 45.95 0.5"/><rect class="cls-2" x="1.79" y="1.79" width="44.15" height="36.62"/><rect class="cls-3" x="5.74" y="3.59" width="35.54" height="21.62"/><rect class="cls-3" x="11.6" y="24.85" width="24.17" height="5.04"/><rect class="cls-3" x="18.07" y="27.61" width="11.37" height="7.81"/><rect class="cls-4" x="8.79" y="3.87" width="2.51" height="8.21"/><rect class="cls-4" x="9.63" y="1.43" width="0.84" height="3.33"/><rect class="cls-4" x="12.61" y="3.87" width="2.51" height="8.21"/><rect class="cls-4" x="13.45" y="1.43" width="0.84" height="3.33"/><rect class="cls-4" x="16.43" y="3.87" width="2.51" height="8.21"/><rect class="cls-4" x="17.27" y="1.43" width="0.84" height="3.33"/><rect class="cls-4" x="20.25" y="3.87" width="2.51" height="8.21"/><rect class="cls-4" x="21.09" y="1.43" width="0.84" height="3.33"/><rect class="cls-4" x="24.07" y="3.87" width="2.51" height="8.21"/><rect class="cls-4" x="24.91" y="1.43" width="0.84" height="3.33"/><rect class="cls-4" x="27.9" y="3.87" width="2.51" height="8.21"/><rect class="cls-4" x="28.73" y="1.43" width="0.84" height="3.33"/><rect class="cls-4" x="31.72" y="3.87" width="2.51" height="8.21"/><rect class="cls-4" x="32.55" y="1.43" width="0.84" height="3.33"/><rect class="cls-4" x="35.54" y="3.87" width="2.51" height="8.21"/><rect class="cls-4" x="36.37" y="1.43" width="0.84" height="3.33"/></g></g></svg>