<svg xmlns="http://www.w3.org/2000/svg" viewBox="0 0 120.59 21.75"><defs><style>.cls-1{fill:#a7a9ac;}.cls-1,.cls-2{stroke:#231f20;}.cls-2{fill:#fff;}.cls-3{fill:#231f20;}</style></defs><g id="Layer_2" data-name="Layer 2"><g id="Layer_2-2" data-name="Layer 2"><path class="cls-1" d="M53.15,21.25H9.64a7,7,0,0,1-4.43-2.62L3.39,14.8C1,9.77.25,5.11.57,3.72,1.18,1.1,4.8.5,4.8.5h111s3.62.6,4.23,3.22c.32,1.39-.41,6-2.82,11.08l-1.82,3.83A7,7,0,0,1,111,21.25H53.15Z"/><path class="cls-2" d="M54.54,19.24H10.6A5.66,5.66,0,0,1,7,17.12L5.57,14C3.62,10,3,6.23,3.3,5.11a3.65,3.65,0,0,1,2.6-2.6H114.69a3.66,3.66,0,0,1,2.6,2.6C117.55,6.23,117,10,115,14l-1.46,3.08A5.66,5.66,0,0,1,110,19.24H54.54Z"/><rect class="cls-3" x="12.26" y="5.33" width="3.83" height="10.48"/><rect class="cls-3" x="19.61" y="5.33" width="3.83" height="10.48"/><rect class="cls-3" x="27.06" y="5.33" width="3.83" height="10.48"/><rect class="cls-3" x="35.32" y="5.33" width="3.83" height="10.48"/><rect class="cls-3" x="43.38" y="5.33" width="3.83" height="10.48"/><rect class="cls-3" x="50.84" y="5.33" width="3.83" height="10.48"/><rect class="cls-3" x="58.29" y="5.33" width="3.83" height="10.48"/><rect class="cls-3" x="66.35" y="5.33" width="3.83" height="10.48"/><rect class="cls-3" x="74.41" y="5.33" width="3.83" height="10.48"/><rect class="cls-3" x="81.86" y="5.33" width="3.83" height="10.48"/><rect class="cls-3" x="89.31" y="5.33" width="3.83" height="10.48"/><rect class="cls-3" x="97.37" y="5.33" width="3.83" height="10.48"/><rect class="cls-3" x="105.43" y="5.33" width="3.83" height="10.48"/><rect class="cls-2" x="8.43" y="8.16" width="103.55" height="4.63"/></g></g></svg>