<svg xmlns="http://www.w3.org/2000/svg" viewBox="0 0 94.13 20.84"><defs><style>.cls-1{fill:#fff;}.cls-1,.cls-2{stroke:#231f20;}.cls-2{fill:#a7a9ac;}.cls-3{fill:#231f20;}</style></defs><g id="Layer_2" data-name="Layer 2"><g id="Layer_2-2" data-name="Layer 2"><path class="cls-1" d="M5,.5s-4.43.7-4.43,4-.24,6.41.7,7.81,7.11,8,11,8H26.54l.94-1.51,1.28,1.51H43c1.87,0,5.6-1.87,8.64-5.26s4-5.25,4.9-5.25S58,10.3,58,11.12v4.2a9.6,9.6,0,0,0,1.46,2.8,7.46,7.46,0,0,0,5,2.21H86.63s7,.35,7-11.08C93.63.23,88,.5,88,.5Z"/><path class="cls-2" d="M5.43,2.83s-2.69,0-2.69,2v5a4.57,4.57,0,0,0,1.35,2.69c1.22,1.16,5.65,5.6,8.22,5.6H26l1.52-1.64,1.4,1.64H43.23c1.75,0,4-2,7-5.25s5-5.14,6.41-5.25a3.05,3.05,0,0,1,3.62,2.8V15a8.36,8.36,0,0,0,2,2,6.15,6.15,0,0,0,4.09,1.17H87.79s4-.24,4-8.4C91.76,2.4,88,2.83,88,2.83Z"/><polygon class="cls-3" points="39.73 4.93 15.11 4.93 15.11 9.37 16.63 9.37 16.63 7.15 19.66 7.15 19.66 9.37 21.06 9.37 21.06 7.15 24.44 7.15 24.44 9.37 26.08 9.37 26.08 7.15 29.34 7.15 29.34 9.37 30.86 9.37 30.86 7.15 34.24 7.15 34.24 9.37 35.64 9.37 35.64 7.15 38.44 7.15 38.44 9.37 39.73 9.37 39.73 4.93"/><polygon class="cls-3" points="88.49 4.93 63.88 4.93 63.88 9.37 65.39 9.37 65.39 7.15 68.42 7.15 68.42 9.37 69.83 9.37 69.83 7.15 73.21 7.15 73.21 9.37 74.84 9.37 74.84 7.15 78.11 7.15 78.11 9.37 79.63 9.37 79.63 7.15 83.01 7.15 83.01 9.37 84.41 9.37 84.41 7.15 87.21 7.15 87.21 9.37 88.49 9.37 88.49 4.93"/></g></g></svg>